<svg width="205" height="205" viewBox="0 0 205 205" fill="none" xmlns="http://www.w3.org/2000/svg">
<path d="M102.5 8.00246C105.393 8.00247 108.191 9.03735 110.388 10.9195L110.417 10.9448C111.434 11.7992 112.536 13.0078 113.91 14.6226C115.217 16.158 116.783 18.0756 118.494 19.9527C121.98 23.7759 126.477 27.9067 132.778 30.5904C139.108 33.2861 144.987 33.5451 149.947 33.2632C152.364 33.1258 154.706 32.847 156.585 32.6656C158.574 32.4735 160.081 32.3863 161.314 32.4937L161.333 32.4956L161.353 32.4966C164.236 32.7198 166.944 33.9664 168.989 36.0113C171.034 38.0562 172.281 40.7655 172.504 43.6489L172.506 43.6665L172.507 43.6841C172.621 45.0055 172.576 46.6534 172.462 48.7368C172.352 50.7275 172.178 53.1349 172.107 55.5864C171.965 60.5377 172.212 66.3441 174.343 72.0513C176.537 77.9267 180.309 81.9639 184.012 85.3091C187.918 88.8377 191.213 91.217 194.064 94.5904L194.073 94.6001L194.425 95.0298C196.09 97.1583 197 99.7876 197 102.501C197 105.213 196.09 107.842 194.425 109.97L194.073 110.4L194.064 110.41C191.213 113.782 187.919 116.16 184.013 119.687C180.309 123.031 176.537 127.068 174.343 132.945C172.212 138.653 171.965 144.46 172.107 149.413C172.178 151.865 172.352 154.273 172.462 156.264C172.577 158.349 172.621 159.998 172.507 161.321L172.506 161.338L172.504 161.356C172.281 164.239 171.034 166.949 168.989 168.994C166.944 171.038 164.236 172.285 161.353 172.508L161.335 172.509L161.317 172.511C159.994 172.626 158.345 172.581 156.261 172.466C154.27 172.357 151.863 172.182 149.411 172.112C144.459 171.97 138.653 172.217 132.946 174.347C127.071 176.54 123.035 180.311 119.689 184.013C116.161 187.919 113.781 191.213 110.407 194.064L110.397 194.073L110.388 194.081C108.191 195.963 105.393 196.998 102.5 196.998C99.6071 196.998 96.8093 195.963 94.6123 194.081L94.6025 194.073L94.5928 194.064L93.9717 193.524C90.9179 190.798 88.6204 187.674 85.3125 184.011C81.9675 180.308 77.9305 176.536 72.0537 174.342C66.3451 172.211 60.539 171.966 55.5879 172.109C53.1371 172.179 50.7283 172.354 48.7383 172.463C46.655 172.578 45.0072 172.622 43.6855 172.506L43.667 172.504L43.6475 172.503L43.1094 172.45C40.4289 172.122 37.9289 170.906 36.0117 168.99C33.9669 166.946 32.7201 164.238 32.4961 161.355L32.4941 161.338L32.4932 161.321L32.457 160.809C32.3905 159.578 32.4378 158.086 32.5381 156.262C32.6476 154.27 32.8223 151.863 32.8926 149.411C33.0345 144.459 32.7881 138.653 30.6572 132.945C28.4633 127.068 24.6907 123.031 20.9873 119.687C17.081 116.16 13.7872 113.782 10.9355 110.41L10.9268 110.4L10.5752 109.97C8.91006 107.842 8.0001 105.213 8 102.501C8 99.6068 9.03504 96.8081 10.918 94.6109L10.9268 94.6011L10.9355 94.5904C13.7872 91.2181 17.081 88.8405 20.9873 85.313C24.6907 81.9688 28.4633 77.9319 30.6572 72.0552C32.788 66.3473 33.0345 60.5404 32.8926 55.5884C32.8223 53.1364 32.6476 50.7288 32.5381 48.7378C32.4235 46.6539 32.3789 45.0056 32.4932 43.6841L32.4941 43.6656L32.4961 43.647C32.7186 40.7631 33.9649 38.0539 36.0098 36.0083C38.0548 33.9626 40.7636 32.7151 43.6475 32.4917L43.665 32.4907L43.6826 32.4888C45.0056 32.3745 46.6551 32.4192 48.7393 32.5337C50.7304 32.6431 53.1374 32.818 55.5889 32.8882C60.5406 33.0301 66.3468 32.7833 72.0537 30.6529C77.9287 28.4596 81.9654 24.689 85.3105 20.9868C88.8392 17.0815 91.2195 13.7873 94.5928 10.9361L94.6025 10.9273L94.6123 10.9195C96.8093 9.03735 99.6071 8.00246 102.5 8.00246Z" fill="white" stroke="black" stroke-width="8"/>
<path d="M102.498 59.4913C113.904 59.4913 124.843 64.0224 132.909 72.088C140.974 80.1536 145.506 91.0935 145.506 102.5C145.506 113.906 140.974 124.846 132.909 132.911C124.843 140.977 113.904 145.508 102.498 145.508C91.0915 145.508 80.1522 140.977 72.0867 132.911C64.0213 124.846 59.4901 113.907 59.49 102.5C59.49 91.0935 64.0212 80.1536 72.0867 72.088C80.1522 64.0224 91.0916 59.4913 102.498 59.4913Z" fill="#FFCC00" stroke="black" stroke-width="8"/>
<path d="M7.88079 112.992C5.3765 110.07 4 106.348 4 102.5C4 98.6511 5.3765 94.9295 7.88079 92.0073C14.0375 84.7265 23.1839 80.6354 26.9095 70.656C30.635 60.6767 27.9389 49.8642 28.5077 43.3394C28.8035 39.5038 30.4609 35.9004 33.1807 33.1798C35.9004 30.4591 39.5032 28.8005 43.3386 28.5035C49.8633 27.9394 60.7496 30.9214 70.65 26.9052C80.9999 22.7067 84.7233 14.0361 92.0056 7.88086C94.9277 5.37653 98.6492 4 102.498 4C106.346 4 110.068 5.37653 112.99 7.88086C118.179 12.2433 124.437 22.8907 134.341 26.9099C144.244 30.9291 155.132 27.9394 161.661 28.5082C165.496 28.8051 169.098 30.463 171.818 33.1827C174.538 35.9024 176.195 39.5047 176.492 43.3394C177.056 49.8642 174.366 60.6741 178.091 70.6513C181.815 80.6286 190.959 84.7249 197.115 92.0073C199.619 94.9295 200.995 98.6511 200.995 102.5C200.995 106.348 199.619 110.07 197.115 112.992C190.958 120.273 181.732 125.755 178.086 134.343C174.44 142.931 177.251 152.572 176.488 161.665C176.191 165.499 174.534 169.1 171.815 171.82C169.096 174.539 165.495 176.198 161.661 176.496C155.132 177.06 144.32 174.369 134.341 178.094C124.362 181.819 120.27 190.963 112.99 197.118C110.068 199.623 106.346 200.999 102.498 200.999C98.6492 200.999 94.9277 199.623 92.0056 197.118C84.7249 190.961 79.2411 181.736 70.6547 178.089C62.0684 174.443 52.4292 177.252 43.3386 176.491C39.5039 176.195 35.9011 174.539 33.1806 171.82C30.4601 169.101 28.8011 165.499 28.503 161.665C27.9389 155.13 30.6294 144.322 26.9048 134.343C23.1801 124.364 14.036 120.273 7.88079 112.992Z" stroke="black" stroke-width="8" stroke-linecap="round" stroke-linejoin="round"/>
<path d="M55.49 102.5C55.49 114.967 60.4426 126.924 69.2582 135.74C78.0738 144.556 90.0304 149.508 102.498 149.508C114.965 149.508 126.921 144.556 135.737 135.74C144.553 126.924 149.505 114.967 149.505 102.5C149.505 90.0324 144.553 78.0756 135.737 69.2598C126.921 60.444 114.965 55.4913 102.498 55.4913C90.0304 55.4913 78.0738 60.444 69.2582 69.2598C60.4426 78.0756 55.49 90.0324 55.49 102.5Z" stroke="black" stroke-width="8" stroke-linecap="round" stroke-linejoin="round"/>
</svg>
