<svg width="197" height="197" viewBox="0 0 197 197" fill="none" xmlns="http://www.w3.org/2000/svg">
<path d="M98.5 191C149.586 191 191 156.833 191 114.687C191 84.8928 170.304 60.119 140.125 47.5515L123.938 54.5621L126.25 79.9996L96.1875 70.7496L66.125 79.9996V54.5621L52.25 47.5515C24.6017 60.7462 6 86.4408 6 114.687C6 156.833 47.4136 191 98.5 191Z" fill="white" stroke="black" stroke-width="12" stroke-linecap="round" stroke-linejoin="round"/>
<path d="M96.1876 6L113.803 29.6648L154 33.3329L124.691 54.4852L133.188 84.6249L96.1876 70.7499L59.1876 84.6249L67.6842 54.4852L38.3751 33.3329L78.5715 29.6648L96.1876 6Z" fill="#FFCC00" stroke="black" stroke-width="12" stroke-linecap="round" stroke-linejoin="round"/>
</svg>
