<svg width="204" height="195" viewBox="0 0 204 195" fill="none" xmlns="http://www.w3.org/2000/svg">
<path d="M133 6.50169C134.92 6.50169 136.777 7.18869 138.236 8.43822L138.248 8.44798L138.259 8.45677C138.937 9.02692 139.68 9.84064 140.622 10.947C141.513 11.9938 142.592 13.3155 143.769 14.6062C146.17 17.2393 149.281 20.1001 153.647 21.9597C158.035 23.8285 162.108 24.0066 165.529 23.8122C167.192 23.7177 168.808 23.5257 170.088 23.4021C171.45 23.2706 172.462 23.2126 173.281 23.2839L173.296 23.2849L173.31 23.2868C175.225 23.4351 177.023 24.2622 178.381 25.6199C179.738 26.9775 180.565 28.7759 180.714 30.6902L180.716 30.7038L180.717 30.7175C180.793 31.603 180.764 32.7158 180.685 34.1433C180.611 35.5012 180.489 37.1591 180.441 38.8435C180.344 42.2485 180.512 46.2669 181.99 50.2243C183.515 54.3081 186.135 57.1088 188.684 59.4118C191.386 61.8524 193.61 63.4524 195.55 65.7468L195.555 65.7546L195.562 65.7624C196.812 67.2213 197.5 69.0794 197.5 71.0007C197.5 72.9218 196.812 74.7793 195.562 76.238L195.556 76.2458L195.55 76.2536C193.61 78.5473 191.387 80.1468 188.685 82.5867C186.136 84.889 183.515 87.6886 181.99 91.7732C180.512 95.7312 180.344 99.75 180.441 103.156C180.489 104.841 180.611 106.5 180.685 107.858C180.764 109.286 180.793 110.4 180.717 111.287L180.716 111.301L180.714 111.313C180.565 113.228 179.738 115.026 178.381 116.384C177.023 117.741 175.225 118.569 173.31 118.718L173.297 118.718L173.284 118.719C172.397 118.796 171.283 118.767 169.855 118.688C168.497 118.614 166.839 118.493 165.154 118.445C161.749 118.348 157.731 118.516 153.773 119.993C149.69 121.517 146.89 124.137 144.587 126.686C142.146 129.387 140.546 131.61 138.252 133.55L138.244 133.556L138.236 133.562C136.777 134.812 134.92 135.499 133 135.499C131.079 135.499 129.222 134.812 127.763 133.562L127.756 133.556L127.748 133.55C125.454 131.61 123.854 129.387 121.414 126.685C119.111 124.136 116.311 121.515 112.226 119.99C108.268 118.512 104.249 118.345 100.844 118.443C99.1607 118.492 97.5016 118.612 96.1443 118.686C94.717 118.765 93.6041 118.794 92.7185 118.717L92.6892 118.715L92.3318 118.678C90.5523 118.461 88.8926 117.654 87.6199 116.382C86.2622 115.024 85.4337 113.226 85.2849 111.312L85.283 111.287C85.2064 110.399 85.2357 109.285 85.3142 107.857C85.3889 106.498 85.51 104.84 85.5583 103.155C85.656 99.7493 85.4871 95.7312 84.0095 91.7732C82.4846 87.6886 79.8638 84.889 77.3142 82.5867C74.6123 80.1468 72.3896 78.5473 70.45 76.2536L70.4431 76.2458L70.4373 76.238L70.2097 75.9607C69.1039 74.5475 68.4998 72.802 68.4998 71.0007C68.4998 69.0794 69.1871 67.2213 70.4373 65.7624L70.4431 65.7546L70.45 65.7468C72.3894 63.4533 74.6125 61.8544 77.3142 59.4148C79.8638 57.1124 82.4846 54.3119 84.0095 50.2273C85.487 46.2694 85.656 42.2509 85.5583 38.8454C85.51 37.1607 85.3889 35.5015 85.3142 34.1433C85.2357 32.7158 85.2064 31.6029 85.283 30.7175L85.2849 30.7038L85.2859 30.6892C85.4336 28.7747 86.2605 26.976 87.6179 25.6179C88.9756 24.2597 90.7746 23.4313 92.6892 23.2829L92.7029 23.282L92.7156 23.281C93.6021 23.2044 94.7163 23.2338 96.1443 23.3122C97.5026 23.3869 99.1609 23.5072 100.845 23.5554C104.251 23.6529 108.269 23.4849 112.226 22.0076C116.31 20.4831 119.11 17.863 121.413 15.3142C123.853 12.6131 125.454 10.3901 127.748 8.45091L127.756 8.44408L127.763 8.43822C129.222 7.18869 131.079 6.50169 133 6.50169Z" fill="white" stroke="black" stroke-width="6"/>
<path d="M132.998 42.2861C140.613 42.2861 147.917 45.3113 153.301 50.6962C158.686 56.0811 161.711 63.3845 161.712 70.9999C161.712 78.6153 158.686 85.9187 153.301 91.3036C147.917 96.6886 140.613 99.7138 132.998 99.7138C125.383 99.7137 118.08 96.6885 112.695 91.3036C107.31 85.9187 104.285 78.6153 104.285 70.9999C104.285 63.3845 107.31 56.0811 112.695 50.6962C118.08 45.3114 125.383 42.2862 132.998 42.2861Z" fill="#FFCC00" stroke="black" stroke-width="7"/>
<path d="M68.1592 78.1902C66.443 76.1876 65.4998 73.6373 65.4998 71C65.4998 68.3627 66.443 65.8123 68.1592 63.8098C72.3783 58.8204 78.6461 56.0168 81.1991 49.1782C83.7522 42.3395 81.9046 34.9299 82.2944 30.4586C82.4971 27.8301 83.6329 25.3608 85.4967 23.4964C87.3604 21.632 89.8294 20.4954 92.4577 20.2918C96.9289 19.9052 104.389 21.9488 111.174 19.1965C118.266 16.3193 120.818 10.3776 125.808 6.15949C127.811 4.44331 130.361 3.5 132.998 3.5C135.635 3.5 138.186 4.44331 140.188 6.15949C143.745 9.14895 148.033 16.4454 154.819 19.1997C161.606 21.954 169.067 19.9052 173.542 20.295C176.17 20.4985 178.638 21.6346 180.502 23.4984C182.366 25.3621 183.502 27.8307 183.705 30.4586C184.092 34.9299 182.248 42.3377 184.8 49.175C187.353 56.0122 193.619 58.8193 197.837 63.8098C199.553 65.8123 200.497 68.3627 200.497 71C200.497 73.6373 199.553 76.1876 197.837 78.1902C193.618 83.1796 187.296 86.9368 184.797 92.8218C182.299 98.7069 184.225 105.314 183.702 111.545C183.499 114.172 182.363 116.64 180.5 118.504C178.637 120.368 176.169 121.504 173.542 121.708C169.067 122.095 161.658 120.251 154.819 122.803C147.981 125.356 145.177 131.622 140.188 135.841C138.186 137.557 135.635 138.5 132.998 138.5C130.361 138.5 127.811 137.557 125.808 135.841C120.819 131.621 117.061 125.299 111.177 122.8C105.293 120.301 98.6873 122.227 92.4577 121.705C89.8298 121.502 87.3609 120.367 85.4966 118.504C83.6323 116.641 82.4954 114.172 82.2912 111.545C81.9046 107.067 83.7483 99.6603 81.1959 92.8218C78.6435 85.9833 72.3772 83.1796 68.1592 78.1902Z" stroke="black" stroke-width="7" stroke-linecap="round" stroke-linejoin="round"/>
<path d="M100.785 71.0001C100.785 79.5438 104.179 87.7376 110.22 93.7789C116.261 99.8202 124.455 103.214 132.998 103.214C141.542 103.214 149.735 99.8202 155.776 93.7789C161.818 87.7376 165.211 79.5438 165.211 71.0001C165.211 62.4564 161.818 54.2627 155.776 48.2213C149.735 42.18 141.542 38.7861 132.998 38.7861C124.455 38.7861 116.261 42.18 110.22 48.2213C104.179 54.2627 100.785 62.4564 100.785 71.0001Z" stroke="black" stroke-width="8" stroke-linecap="round" stroke-linejoin="round"/>
<rect x="45.5298" y="90.249" width="88.3931" height="13.5989" fill="white"/>
<path d="M137.28 99.0401L137.275 133.659ZM137.28 99.0401C137.275 90.8888 138.391 88.7395 149.294 93.7657C179.732 107.834 180.91 157.295 152.075 174.382C135.338 184.305 112.28 189.037 89.2158 189.5C66.1633 189.037 43.1052 184.305 26.3568 174.382C-2.47294 157.29 -1.29483 107.829 29.1435 93.7713C40.041 88.7395 41.1568 90.8775 41.1568 99.0344M137.28 99.0401C137.275 73.3225 89.2214 69.4866 89.2158 93.7713ZM89.2158 93.7713L89.2214 133.659ZM89.2101 93.777C89.2158 69.4922 41.1625 73.3282 41.1568 99.0344ZM41.1568 99.0344L41.1568 133.671Z" fill="white"/>
<path d="M137.28 99.0401L142.78 99.041L142.78 99.0389L137.28 99.0401ZM131.775 133.658C131.774 136.696 134.236 139.159 137.274 139.159C140.311 139.16 142.774 136.698 142.775 133.66L137.275 133.659L131.775 133.658ZM149.294 93.7657L151.601 88.7732L151.596 88.7709L149.294 93.7657ZM152.075 174.382L149.271 169.65L149.27 169.651L152.075 174.382ZM89.2158 189.5L89.1054 194.999L89.2157 195.001L89.326 194.999L89.2158 189.5ZM26.3568 174.382L23.5519 179.113L23.5534 179.114L26.3568 174.382ZM29.1435 93.7713L26.8378 88.7779L26.8374 88.7781L29.1435 93.7713ZM89.2158 93.7713L83.7158 93.7701L83.7158 93.7721L89.2158 93.7713ZM83.7214 133.66C83.7219 136.698 86.1846 139.16 89.2222 139.159C92.2598 139.159 94.7219 136.696 94.7214 133.658L89.2214 133.659L83.7214 133.66ZM83.7101 93.7757L83.7088 99.2757L94.7088 99.2783L94.7101 93.7783L89.2101 93.777L83.7101 93.7757ZM35.6568 133.671C35.6568 136.708 38.1192 139.171 41.1568 139.171C44.1944 139.171 46.6568 136.708 46.6568 133.671L41.1568 133.671L35.6568 133.671ZM137.28 99.0401L131.78 99.0392L131.775 133.658L137.275 133.659L142.775 133.66L142.78 99.041L137.28 99.0401ZM137.28 99.0401L142.78 99.0363C142.779 96.9963 142.861 95.8649 142.998 95.2316C143.133 94.6072 143.08 95.5839 141.903 96.249C140.911 96.8103 140.378 96.405 141.579 96.6823C142.655 96.9304 144.357 97.5462 146.991 98.7605L149.294 93.7657L151.596 88.7709C148.779 87.4722 146.253 86.4717 144.053 85.964C141.979 85.4853 139.123 85.1844 136.489 86.6737C133.672 88.2667 132.659 90.995 132.246 92.909C131.834 94.8142 131.779 97.0083 131.78 99.0439L137.28 99.0401ZM149.294 93.7657L146.986 98.7582C159.838 104.698 166.965 118.351 167.414 133.109C167.864 147.875 161.569 162.363 149.271 169.65L152.075 174.382L154.879 179.114C171.416 169.314 178.95 150.528 178.409 132.775C177.869 115.014 169.188 96.9018 151.601 88.7732L149.294 93.7657ZM152.075 174.382L149.27 169.651C133.648 178.913 111.64 183.549 89.1055 184.001L89.2158 189.5L89.326 194.999C112.919 194.526 137.028 189.697 154.88 179.113L152.075 174.382ZM89.2158 189.5L89.3261 184.001C66.804 183.549 44.795 178.913 29.1602 169.65L26.3568 174.382L23.5534 179.114C41.4154 189.696 65.5226 194.526 89.1054 194.999L89.2158 189.5ZM26.3568 174.382L29.1617 169.651C16.8657 162.361 10.572 147.872 11.0221 133.106C11.4719 118.349 18.599 104.699 31.4495 98.7645L29.1435 93.7713L26.8374 88.7781C9.24967 96.9008 0.568533 115.011 0.0271703 132.771C-0.513954 150.523 7.0181 169.311 23.5519 179.113L26.3568 174.382ZM29.1435 93.7713L31.4491 98.7647C34.0827 97.5487 35.7849 96.9311 36.8607 96.6816C38.0636 96.4026 37.5304 96.8089 36.5358 96.2483C35.3559 95.5831 35.3016 94.6033 35.4369 95.2277C35.574 95.8609 35.6568 96.9926 35.6568 99.0344L41.1568 99.0344L46.6568 99.0344C46.6568 96.9978 46.6001 94.8034 46.1875 92.8988C45.773 90.9854 44.7586 88.2562 41.9375 86.6659C39.3018 85.1801 36.4465 85.4856 34.3752 85.9661C32.1769 86.476 29.653 87.4781 26.8378 88.7779L29.1435 93.7713ZM137.28 99.0401L142.78 99.0389C142.779 90.6828 138.8 84.1241 133.2 79.6537C127.709 75.2711 120.632 72.8297 113.767 72.1794C106.933 71.532 99.6902 72.6052 93.9365 75.9937C87.9417 79.5241 83.7177 85.5412 83.7158 93.7701L89.2158 93.7713L94.7158 93.7726C94.7167 89.8591 96.5014 87.2489 99.5185 85.4722C102.776 83.5535 107.549 82.6396 112.729 83.1303C117.879 83.6181 122.816 85.4399 126.338 88.2507C129.749 90.9737 131.779 94.5386 131.78 99.0413L137.28 99.0401ZM89.2158 93.7713L83.7158 93.7721L83.7214 133.66L89.2214 133.659L94.7214 133.658L94.7158 93.7706L89.2158 93.7713ZM89.2101 93.777L94.7101 93.7783C94.712 85.5492 90.4906 79.531 84.4968 75.9997C78.7444 72.6106 71.5027 71.537 64.6696 72.1835C57.8053 72.833 50.7283 75.2732 45.238 79.6539C39.6377 84.1224 35.6586 90.679 35.6568 99.0332L41.1568 99.0344L46.6568 99.0357C46.6578 94.5367 48.6875 90.974 52.0986 88.2523C55.6198 85.4427 60.5567 83.6218 65.7058 83.1346C70.886 82.6445 75.6569 83.5587 78.9131 85.4771C81.9279 87.2533 83.711 89.8624 83.7101 93.7757L89.2101 93.777ZM41.1568 99.0344L35.6568 99.0344L35.6568 133.671L41.1568 133.671L46.6568 133.671L46.6568 99.0344L41.1568 99.0344Z" fill="black"/>
</svg>
