<svg width="203" height="196" viewBox="0 0 203 196" fill="none" xmlns="http://www.w3.org/2000/svg">
<path d="M133.828 132.687C168.95 132.687 197.422 109.198 197.422 80.2224C197.422 59.7388 183.193 42.7068 162.445 34.0667L151.316 38.8864L152.906 56.3747L132.238 50.0154L111.57 56.3747V38.8864L102.031 34.0667C83.0228 43.138 70.2341 60.8031 70.2341 80.2224C70.2341 109.198 98.706 132.687 133.828 132.687Z" fill="white" stroke="black" stroke-width="11" stroke-linecap="round" stroke-linejoin="round"/>
<path d="M132.238 5.5L144.349 21.7696L171.984 24.2914L151.834 38.8336L157.676 59.5546L132.238 50.0156L106.801 59.5546L112.642 38.8336L92.4921 24.2914L120.127 21.7696L132.238 5.5Z" fill="#FFCC00" stroke="black" stroke-width="11" stroke-linecap="round" stroke-linejoin="round"/>
<rect x="45.5298" y="91.1709" width="88.3931" height="13.5989" fill="white"/>
<path d="M137.28 99.9619L137.275 134.581ZM137.28 99.9619C137.275 91.8106 138.391 89.6614 149.294 94.6876C179.732 108.756 180.91 158.217 152.075 175.304C135.338 185.226 112.28 189.959 89.2158 190.422C66.1633 189.959 43.1052 185.226 26.3568 175.304C-2.47294 158.211 -1.29483 108.751 29.1435 94.6932C40.041 89.6614 41.1568 91.7993 41.1568 99.9563M137.28 99.9619C137.275 74.2444 89.2214 70.4085 89.2158 94.6932ZM89.2158 94.6932L89.2214 134.581ZM89.2101 94.6988C89.2158 70.4141 41.1625 74.25 41.1568 99.9563ZM41.1568 99.9563L41.1568 134.592Z" fill="white"/>
<path d="M137.28 99.9619L142.78 99.9628L142.78 99.9607L137.28 99.9619ZM131.775 134.58C131.774 137.618 134.236 140.081 137.274 140.081C140.311 140.082 142.774 137.62 142.775 134.582L137.275 134.581L131.775 134.58ZM149.294 94.6876L151.601 89.6951L151.596 89.6927L149.294 94.6876ZM152.075 175.304L149.271 170.572L149.27 170.573L152.075 175.304ZM89.2158 190.422L89.1054 195.921L89.2157 195.923L89.326 195.921L89.2158 190.422ZM26.3568 175.304L23.5519 180.035L23.5534 180.036L26.3568 175.304ZM29.1435 94.6932L26.8378 89.6998L26.8374 89.7L29.1435 94.6932ZM89.2158 94.6932L83.7158 94.6919L83.7158 94.694L89.2158 94.6932ZM83.7214 134.582C83.7219 137.619 86.1846 140.082 89.2222 140.081C92.2598 140.081 94.7219 137.618 94.7214 134.58L89.2214 134.581L83.7214 134.582ZM83.7101 94.6976L83.7088 100.198L94.7088 100.2L94.7101 94.7001L89.2101 94.6988L83.7101 94.6976ZM35.6568 134.592C35.6568 137.63 38.1192 140.092 41.1568 140.092C44.1944 140.092 46.6568 137.63 46.6568 134.592L41.1568 134.592L35.6568 134.592ZM137.28 99.9619L131.78 99.961L131.775 134.58L137.275 134.581L142.775 134.582L142.78 99.9628L137.28 99.9619ZM137.28 99.9619L142.78 99.9581C142.779 97.9181 142.861 96.7867 142.998 96.1535C143.133 95.529 143.08 96.5057 141.903 97.1708C140.911 97.7322 140.378 97.3269 141.579 97.6041C142.655 97.8523 144.357 98.468 146.991 99.6824L149.294 94.6876L151.596 89.6927C148.779 88.394 146.253 87.3936 144.053 86.8858C141.979 86.4072 139.123 86.1063 136.489 87.5955C133.672 89.1886 132.659 91.9169 132.246 93.8309C131.834 95.7361 131.779 97.9301 131.78 99.9658L137.28 99.9619ZM149.294 94.6876L146.986 99.6801C159.838 105.62 166.965 119.273 167.414 134.031C167.864 148.797 161.569 163.285 149.271 170.572L152.075 175.304L154.879 180.036C171.416 170.236 178.95 151.45 178.409 133.697C177.869 115.935 169.188 97.8236 151.601 89.6951L149.294 94.6876ZM152.075 175.304L149.27 170.573C133.648 179.835 111.64 184.471 89.1055 184.923L89.2158 190.422L89.326 195.921C112.919 195.448 137.028 190.618 154.88 180.035L152.075 175.304ZM89.2158 190.422L89.3261 184.923C66.804 184.471 44.795 179.835 29.1602 170.572L26.3568 175.304L23.5534 180.036C41.4154 190.618 65.5226 195.448 89.1054 195.921L89.2158 190.422ZM26.3568 175.304L29.1617 170.573C16.8657 163.283 10.572 148.793 11.0221 134.028C11.4719 119.27 18.599 105.621 31.4495 99.6864L29.1435 94.6932L26.8374 89.7C9.24967 97.8226 0.568533 115.933 0.0271703 133.693C-0.513954 151.445 7.0181 170.232 23.5519 180.035L26.3568 175.304ZM29.1435 94.6932L31.4491 99.6866C34.0827 98.4706 35.7849 97.853 36.8607 97.6035C38.0636 97.3244 37.5304 97.7308 36.5358 97.1701C35.3559 96.505 35.3016 95.5252 35.4369 96.1496C35.574 96.7827 35.6568 97.9144 35.6568 99.9563L41.1568 99.9563L46.6568 99.9563C46.6568 97.9197 46.6001 95.7253 46.1875 93.8207C45.773 91.9073 44.7586 89.1781 41.9375 87.5878C39.3018 86.102 36.4465 86.4075 34.3752 86.8879C32.1769 87.3978 29.653 88.3999 26.8378 89.6998L29.1435 94.6932ZM137.28 99.9619L142.78 99.9607C142.779 91.6046 138.8 85.046 133.2 80.5756C127.709 76.193 120.632 73.7515 113.767 73.1012C106.933 72.4539 99.6902 73.5271 93.9365 76.9156C87.9417 80.4459 83.7177 86.463 83.7158 94.6919L89.2158 94.6932L94.7158 94.6945C94.7167 90.781 96.5014 88.1708 99.5185 86.394C102.776 84.4753 107.549 83.5615 112.729 84.0522C117.879 84.54 122.816 86.3618 126.338 89.1726C129.749 91.8955 131.779 95.4605 131.78 99.9632L137.28 99.9619ZM89.2158 94.6932L83.7158 94.694L83.7214 134.582L89.2214 134.581L94.7214 134.58L94.7158 94.6924L89.2158 94.6932ZM89.2101 94.6988L94.7101 94.7001C94.712 86.471 90.4906 80.4528 84.4968 76.9215C78.7444 73.5324 71.5027 72.4589 64.6696 73.1054C57.8053 73.7549 50.7283 76.1951 45.238 80.5758C39.6377 85.0443 35.6586 91.6009 35.6568 99.9551L41.1568 99.9563L46.6568 99.9575C46.6578 95.4586 48.6875 91.8959 52.0986 89.1741C55.6198 86.3646 60.5567 84.5437 65.7058 84.0565C70.886 83.5663 75.6569 84.4806 78.9131 86.399C81.9279 88.1752 83.711 90.7843 83.7101 94.6976L89.2101 94.6988ZM41.1568 99.9563L35.6568 99.9563L35.6568 134.592L41.1568 134.592L46.6568 134.592L46.6568 99.9563L41.1568 99.9563Z" fill="black"/>
</svg>
