<svg width="205" height="182" viewBox="0 0 205 182" fill="none" xmlns="http://www.w3.org/2000/svg">
<rect x="102.759" y="15.1236" width="66.7269" height="10.2657" fill="white"/>
<path d="M172.02 21.7599L172.016 47.8935ZM172.02 21.7599C172.016 15.6066 172.858 13.9841 181.089 17.7783C204.066 28.3987 204.956 65.736 183.188 78.6346C170.554 86.1251 153.147 89.6978 135.737 90.047C118.335 89.6978 100.928 86.1251 88.2852 78.6346C66.522 65.7318 67.4114 28.3944 90.3889 17.7826C98.6153 13.9841 99.4576 15.598 99.4576 21.7556M172.02 21.7599C172.016 2.346 135.741 -0.549688 135.737 17.7826ZM135.737 17.7826L135.741 47.8935ZM135.732 17.7868C135.737 -0.545428 99.4619 2.35026 99.4576 21.7556ZM99.4576 21.7556L99.4576 47.902Z" fill="white"/>
<path d="M172.02 21.7599L177.52 21.7608L177.52 21.7587L172.02 21.7599ZM166.516 47.8926C166.515 50.9302 168.977 53.393 172.015 53.3935C175.053 53.394 177.515 50.932 177.516 47.8944L172.016 47.8935L166.516 47.8926ZM181.089 17.7783L183.396 12.7858L183.391 12.7835L181.089 17.7783ZM183.188 78.6346L180.384 73.903L180.383 73.9036L183.188 78.6346ZM135.737 90.047L135.626 95.5459L135.737 95.5481L135.847 95.5459L135.737 90.047ZM88.2852 78.6346L85.4803 83.3656L85.4818 83.3665L88.2852 78.6346ZM90.3889 17.7826L88.0832 12.7892L88.0828 12.7894L90.3889 17.7826ZM135.737 17.7826L130.237 17.7813L130.237 17.7834L135.737 17.7826ZM130.241 47.8943C130.241 50.9318 132.704 53.3939 135.742 53.3935C138.779 53.393 141.241 50.9303 141.241 47.8927L135.741 47.8935L130.241 47.8943ZM130.232 17.7856L130.231 23.2856L141.231 23.2881L141.232 17.7881L135.732 17.7868L130.232 17.7856ZM93.9576 47.902C93.9576 50.9396 96.42 53.402 99.4576 53.402C102.495 53.402 104.958 50.9396 104.958 47.902L99.4576 47.902L93.9576 47.902ZM172.02 21.7599L166.52 21.759L166.516 47.8926L172.016 47.8935L177.516 47.8944L177.52 21.7608L172.02 21.7599ZM172.02 21.7599L177.52 21.7561C177.52 21.0373 177.532 20.4677 177.561 20.0059C177.59 19.535 177.63 19.2805 177.654 19.1696C177.68 19.0493 177.655 19.2506 177.456 19.5884C177.225 19.979 176.811 20.4661 176.174 20.8264C175.563 21.1718 175.04 21.2352 174.82 21.2439C174.63 21.2515 174.645 21.2205 174.962 21.2936C175.266 21.3637 175.727 21.5011 176.39 21.7518C177.045 21.9997 177.835 22.3345 178.786 22.7732L181.089 17.7783L183.391 12.7835C181.242 11.7928 179.235 10.9904 177.436 10.5753C175.763 10.1893 173.192 9.87559 170.759 11.2511C168.143 12.7305 167.248 15.244 166.902 16.847C166.558 18.4411 166.519 20.2276 166.52 21.7637L172.02 21.7599ZM181.089 17.7783L178.781 22.7708C187.903 26.9869 193.093 36.7468 193.42 47.5195C193.749 58.2999 189.149 68.7097 180.384 73.903L183.188 78.6346L185.992 83.3663C198.995 75.661 204.834 60.9527 204.415 47.1848C203.996 33.4091 197.252 19.1902 183.396 12.7858L181.089 17.7783ZM183.188 78.6346L180.383 73.9036C168.864 80.7332 152.507 84.2096 135.626 84.5481L135.737 90.047L135.847 95.5459C153.787 95.1861 172.244 91.517 185.993 83.3657L183.188 78.6346ZM135.737 90.047L135.847 84.5481C118.975 84.2096 102.618 80.7334 91.0887 73.9027L88.2852 78.6346L85.4818 83.3665C99.2387 91.5168 117.694 95.1861 135.626 95.5459L135.737 90.047ZM88.2852 78.6346L91.0901 73.9036C82.3275 68.7084 77.7281 58.2972 78.0567 47.517C78.3851 36.7447 83.5748 26.9878 92.6949 22.7758L90.3889 17.7826L88.0828 12.7894C74.2255 19.1892 67.4817 33.4069 67.0618 47.1819C66.6422 60.9491 72.4798 75.658 85.4803 83.3656L88.2852 78.6346ZM90.3889 17.7826L92.6945 22.776C93.646 22.3367 94.4357 22.0012 95.091 21.7526C95.7537 21.5013 96.2152 21.3632 96.5191 21.2927C96.8363 21.2192 96.852 21.2501 96.6622 21.2428C96.4429 21.2344 95.9194 21.1718 95.3073 20.8268C94.6685 20.4667 94.2525 19.979 94.0214 19.5876C93.8215 19.2492 93.7961 19.0472 93.8221 19.1674C93.8461 19.2782 93.8866 19.5328 93.916 20.0041C93.9449 20.4661 93.9576 21.0362 93.9576 21.7556L99.4576 21.7556L104.958 21.7556C104.958 20.2188 104.918 18.4321 104.573 16.8385C104.226 15.2361 103.329 12.7213 100.709 11.2444C98.2744 9.872 95.7036 10.1899 94.0337 10.5772C92.2366 10.994 90.2306 11.7976 88.0832 12.7892L90.3889 17.7826ZM172.02 21.7599L177.52 21.7587C177.519 14.9785 174.277 9.66057 169.781 6.07173C165.395 2.57072 159.79 0.651751 154.397 0.140937C149.036 -0.366928 143.266 0.462731 138.616 3.2008C133.726 6.08076 130.238 11.0405 130.237 17.7813L135.737 17.7826L141.237 17.7839C141.237 15.3585 142.286 13.8056 144.198 12.6793C146.352 11.411 149.652 10.7407 153.36 11.0919C157.037 11.4402 160.502 12.7395 162.919 14.6687C165.225 16.5101 166.52 18.8343 166.52 21.7611L172.02 21.7599ZM135.737 17.7826L130.237 17.7834L130.241 47.8943L135.741 47.8935L141.241 47.8927L141.237 17.7818L135.737 17.7826ZM135.732 17.7868L141.232 17.7881C141.234 11.0471 137.749 6.08628 132.859 3.20544C128.21 0.466786 122.441 -0.363149 117.08 0.144075C111.688 0.654252 106.084 2.57222 101.698 6.07172C97.2018 9.65899 93.9591 14.9754 93.9576 21.7544L99.4576 21.7556L104.958 21.7568C104.958 18.8331 106.252 16.5106 108.558 14.6701C110.975 12.7417 114.44 11.443 118.116 11.0952C121.824 10.7443 125.123 11.4149 127.275 12.6829C129.186 13.8086 130.233 15.3604 130.232 17.7856L135.732 17.7868ZM99.4576 21.7556L93.9576 21.7556L93.9576 47.902L99.4576 47.902L104.958 47.902L104.958 21.7556L99.4576 21.7556Z" fill="black"/>
<rect x="45.5298" y="76.7586" width="88.3931" height="13.5989" fill="white"/>
<path d="M137.28 85.5497L137.275 120.169ZM137.28 85.5497C137.275 77.3984 138.391 75.2492 149.294 80.2754C179.732 94.3442 180.91 143.805 152.075 160.892C135.338 170.814 112.28 175.547 89.2158 176.01C66.1633 175.547 43.1052 170.814 26.3568 160.892C-2.47294 143.799 -1.29483 94.3385 29.1435 80.281C40.041 75.2492 41.1568 77.3871 41.1568 85.5441M137.28 85.5497C137.275 59.8322 89.2214 55.9963 89.2158 80.281ZM89.2158 80.281L89.2214 120.169ZM89.2101 80.2866C89.2158 56.0019 41.1625 59.8378 41.1568 85.5441ZM41.1568 85.5441L41.1568 120.18Z" fill="white"/>
<path d="M137.28 85.5497L142.78 85.5506L142.78 85.5485L137.28 85.5497ZM131.775 120.168C131.774 123.206 134.236 125.668 137.274 125.669C140.311 125.669 142.774 123.207 142.775 120.17L137.275 120.169L131.775 120.168ZM149.294 80.2754L151.601 75.2829L151.596 75.2805L149.294 80.2754ZM152.075 160.892L149.271 156.16L149.27 156.161L152.075 160.892ZM89.2158 176.01L89.1054 181.509L89.2157 181.511L89.326 181.509L89.2158 176.01ZM26.3568 160.892L23.5519 165.623L23.5534 165.624L26.3568 160.892ZM29.1435 80.281L26.8378 75.2876L26.8374 75.2878L29.1435 80.281ZM89.2158 80.281L83.7158 80.2797L83.7158 80.2818L89.2158 80.281ZM83.7214 120.17C83.7219 123.207 86.1846 125.669 89.2222 125.669C92.2598 125.668 94.7219 123.206 94.7214 120.168L89.2214 120.169L83.7214 120.17ZM83.7101 80.2854L83.7088 85.7854L94.7088 85.7879L94.7101 80.2879L89.2101 80.2866L83.7101 80.2854ZM35.6568 120.18C35.6568 123.218 38.1192 125.68 41.1568 125.68C44.1944 125.68 46.6568 123.218 46.6568 120.18L41.1568 120.18L35.6568 120.18ZM137.28 85.5497L131.78 85.5488L131.775 120.168L137.275 120.169L142.775 120.17L142.78 85.5506L137.28 85.5497ZM137.28 85.5497L142.78 85.5459C142.779 83.5059 142.861 82.3745 142.998 81.7413C143.133 81.1168 143.08 82.0935 141.903 82.7586C140.911 83.32 140.378 82.9147 141.579 83.1919C142.655 83.4401 144.357 84.0558 146.991 85.2702L149.294 80.2754L151.596 75.2805C148.779 73.9818 146.253 72.9814 144.053 72.4736C141.979 71.995 139.123 71.6941 136.489 73.1833C133.672 74.7764 132.659 77.5047 132.246 79.4187C131.834 81.3239 131.779 83.5179 131.78 85.5536L137.28 85.5497ZM149.294 80.2754L146.986 85.2679C159.838 91.2081 166.965 104.861 167.414 119.619C167.864 134.385 161.569 148.873 149.271 156.16L152.075 160.892L154.879 165.623C171.416 155.824 178.95 137.038 178.409 119.284C177.869 101.523 169.188 83.4114 151.601 75.2829L149.294 80.2754ZM152.075 160.892L149.27 156.161C133.648 165.422 111.64 170.059 89.1055 170.511L89.2158 176.01L89.326 181.509C112.919 181.035 137.028 176.206 154.88 165.623L152.075 160.892ZM89.2158 176.01L89.3261 170.511C66.804 170.059 44.795 165.423 29.1602 156.16L26.3568 160.892L23.5534 165.624C41.4154 176.206 65.5226 181.035 89.1054 181.509L89.2158 176.01ZM26.3568 160.892L29.1617 156.161C16.8657 148.871 10.572 134.381 11.0221 119.616C11.4719 104.858 18.599 91.2091 31.4495 85.2742L29.1435 80.281L26.8374 75.2878C9.24967 83.4104 0.568533 101.52 0.0271703 119.281C-0.513954 137.033 7.0181 155.82 23.5519 165.623L26.3568 160.892ZM29.1435 80.281L31.4491 85.2744C34.0827 84.0584 35.7849 83.4408 36.8607 83.1913C38.0636 82.9122 37.5304 83.3186 36.5358 82.7579C35.3559 82.0928 35.3016 81.113 35.4369 81.7374C35.574 82.3705 35.6568 83.5022 35.6568 85.5441L41.1568 85.5441L46.6568 85.5441C46.6568 83.5075 46.6001 81.3131 46.1875 79.4085C45.773 77.4951 44.7586 74.7659 41.9375 73.1756C39.3018 71.6898 36.4465 71.9953 34.3752 72.4757C32.1769 72.9856 29.653 73.9877 26.8378 75.2876L29.1435 80.281ZM137.28 85.5497L142.78 85.5485C142.779 77.1924 138.8 70.6338 133.2 66.1634C127.709 61.7808 120.632 59.3393 113.767 58.689C106.933 58.0417 99.6902 59.1149 93.9365 62.5034C87.9417 66.0337 83.7177 72.0508 83.7158 80.2797L89.2158 80.281L94.7158 80.2823C94.7167 76.3688 96.5014 73.7586 99.5185 71.9818C102.776 70.0631 107.549 69.1493 112.729 69.64C117.879 70.1278 122.816 71.9496 126.338 74.7604C129.749 77.4833 131.779 81.0483 131.78 85.551L137.28 85.5497ZM89.2158 80.281L83.7158 80.2818L83.7214 120.17L89.2214 120.169L94.7214 120.168L94.7158 80.2802L89.2158 80.281ZM89.2101 80.2866L94.7101 80.2879C94.712 72.0588 90.4906 66.0406 84.4968 62.5093C78.7444 59.1202 71.5027 58.0467 64.6696 58.6932C57.8053 59.3427 50.7283 61.7829 45.238 66.1636C39.6377 70.6321 35.6586 77.1887 35.6568 85.5429L41.1568 85.5441L46.6568 85.5453C46.6578 81.0464 48.6875 77.4837 52.0986 74.7619C55.6198 71.9524 60.5567 70.1315 65.7058 69.6443C70.886 69.1541 75.6569 70.0684 78.9131 71.9868C81.9279 73.763 83.711 76.3721 83.7101 80.2854L89.2101 80.2866ZM41.1568 85.5441L35.6568 85.5441L35.6568 120.18L41.1568 120.18L46.6568 120.18L46.6568 85.5441L41.1568 85.5441Z" fill="black"/>
</svg>
