<svg width="205" height="198" viewBox="0 0 205 198" fill="none" xmlns="http://www.w3.org/2000/svg">
<rect x="53.0251" y="25.5935" width="99.9289" height="14.6954" fill="white"/>
<path d="M157.9 30.8282L157.893 70.7327L157.9 30.8282ZM157.9 30.8282C157.893 21.4324 159.179 18.955 171.747 24.7485C206.833 40.9653 208.191 97.9773 174.953 117.673C155.66 129.11 129.082 134.566 102.497 135.099C75.925 134.566 49.3465 129.11 30.0411 117.673C-3.19016 97.9708 -1.83218 40.9587 33.2532 24.755C45.8145 18.955 47.1007 21.4194 47.1007 30.8217M157.9 30.8282C157.893 1.18423 102.503 -3.23733 102.497 24.755L157.9 30.8282ZM102.497 24.755L102.503 70.7327L102.497 24.755ZM102.49 24.7615C102.497 -3.23083 47.1072 1.19073 47.1007 30.8217L102.49 24.7615ZM47.1007 30.8217L47.1007 70.7457L47.1007 30.8217Z" fill="white"/>
<path d="M148.354 181.966V163.575V181.966ZM102.189 191.162V163.575V191.162ZM56.0239 181.966L56.0239 163.575L56.0239 181.966Z" fill="white"/>
<path d="M157.9 30.8282L163.9 30.8292L163.9 30.8269L157.9 30.8282ZM151.893 70.7318C151.893 74.0455 154.579 76.7322 157.892 76.7327C161.206 76.7333 163.893 74.0474 163.893 70.7337L157.893 70.7327L151.893 70.7318ZM171.747 24.7485L174.265 19.3022L174.259 19.2996L171.747 24.7485ZM174.953 117.673L171.894 112.511L171.893 112.512L174.953 117.673ZM102.497 135.099L102.377 141.098L102.497 141.1L102.617 141.098L102.497 135.099ZM30.0411 117.673L26.9812 122.834L26.9828 122.835L30.0411 117.673ZM33.2532 24.755L30.738 19.3077L30.7375 19.3079L33.2532 24.755ZM102.497 24.755L96.497 24.7536V24.7559L102.497 24.755ZM96.5035 70.7336C96.504 74.0473 99.1906 76.7332 102.504 76.7327C105.818 76.7323 108.504 74.0456 108.503 70.7319L102.503 70.7327L96.5035 70.7336ZM96.4904 24.7601L96.489 30.7601L108.489 30.7629L108.49 24.7629L102.49 24.7615L96.4904 24.7601ZM41.1007 70.7457C41.1007 74.0594 43.7869 76.7457 47.1007 76.7457C50.4144 76.7457 53.1007 74.0594 53.1007 70.7457H47.1007H41.1007ZM142.354 181.966C142.354 185.28 145.04 187.966 148.354 187.966C151.668 187.966 154.354 185.28 154.354 181.966H148.354H142.354ZM154.354 163.575C154.354 160.261 151.668 157.575 148.354 157.575C145.04 157.575 142.354 160.261 142.354 163.575H148.354H154.354ZM96.189 191.162C96.189 194.476 98.8753 197.162 102.189 197.162C105.503 197.162 108.189 194.476 108.189 191.162H102.189H96.189ZM108.189 163.575C108.189 160.261 105.503 157.575 102.189 157.575C98.8753 157.575 96.189 160.261 96.189 163.575H102.189H108.189ZM50.0239 181.966C50.0239 185.28 52.7102 187.966 56.0239 187.966C59.3376 187.966 62.0239 185.28 62.0239 181.966H56.0239H50.0239ZM62.0239 163.575C62.0239 160.261 59.3376 157.575 56.0239 157.575C52.7102 157.575 50.0239 160.261 50.0239 163.575H56.0239H62.0239ZM157.9 30.8282L151.9 30.8272L151.893 70.7318L157.893 70.7327L163.893 70.7337L163.9 30.8292L157.9 30.8282ZM157.9 30.8282L163.9 30.824C163.898 28.4727 163.992 27.1358 164.158 26.3665C164.322 25.6069 164.294 26.6183 163.061 27.3152C162.029 27.8989 161.52 27.4536 162.931 27.7794C164.206 28.0734 166.193 28.7951 169.235 30.1974L171.747 24.7485L174.259 19.2996C171.017 17.8052 168.131 16.664 165.63 16.0867C163.266 15.5412 160.079 15.2161 157.155 16.8695C154.031 18.636 152.897 21.6664 152.429 23.8328C151.963 25.9896 151.898 28.4858 151.9 30.8323L157.9 30.8282ZM171.747 24.7485L169.23 30.1949C184.19 37.1096 192.453 52.9847 192.974 70.0887C193.495 87.2012 186.201 104.033 171.894 112.511L174.953 117.673L178.012 122.835C196.943 111.617 205.588 90.0952 204.968 69.7236C204.348 49.3435 194.39 28.6042 174.265 19.3022L171.747 24.7485ZM174.953 117.673L171.893 112.512C153.817 123.228 128.384 128.579 102.377 129.1L102.497 135.099L102.617 141.098C129.78 140.553 157.504 134.992 178.013 122.834L174.953 117.673ZM102.497 135.099L102.617 129.1C76.6239 128.579 51.1899 123.228 33.0994 112.511L30.0411 117.673L26.9828 122.835C47.5032 134.992 75.2261 140.553 102.377 141.098L102.497 135.099ZM30.0411 117.673L33.101 112.512C18.7969 104.031 11.504 87.1968 12.0256 70.0849C12.547 52.9815 20.8101 37.1107 35.7689 30.2022L33.2532 24.755L30.7375 19.3079C10.6109 28.6031 0.652385 49.3402 0.0311971 69.7193C-0.58973 90.0898 8.05403 111.612 26.9812 122.834L30.0411 117.673ZM33.2532 24.755L35.7685 30.2024C38.8098 28.7981 40.7971 28.0744 42.0719 27.7787C43.4852 27.4509 42.9753 27.8973 41.941 27.3142C40.7045 26.6172 40.6749 25.6023 40.8395 26.3618C41.0061 27.1309 41.1007 28.4682 41.1007 30.8217H47.1007H53.1007C53.1007 28.4739 53.0345 25.9773 52.5674 23.8212C52.0983 21.6555 50.962 18.6242 47.8338 16.8607C44.9078 15.2113 41.7211 15.5415 39.3605 16.089C36.8612 16.6687 33.9773 17.8119 30.738 19.3077L33.2532 24.755ZM157.9 30.8282L163.9 30.8269C163.898 21.314 159.372 13.8465 152.984 8.74751C146.716 3.74434 138.624 0.949284 130.764 0.204726C122.938 -0.536613 114.666 0.695498 108.111 4.55594C101.293 8.57116 96.4991 15.4017 96.497 24.7536L102.497 24.755L108.497 24.7564C108.498 20.1122 110.631 16.9983 114.2 14.8961C118.033 12.6391 123.61 11.5808 129.633 12.1513C135.621 12.7185 141.378 14.8376 145.498 18.1261C149.498 21.3187 151.899 25.5204 151.9 30.8295L157.9 30.8282ZM102.497 24.755L96.497 24.7559L96.5035 70.7336L102.503 70.7327L108.503 70.7319L108.497 24.7542L102.497 24.755ZM102.49 24.7615L108.49 24.7629C108.493 15.4108 103.702 8.57904 96.8851 4.5628C90.3315 0.701663 82.0605 -0.530866 74.2353 0.209542C66.3759 0.953172 58.2845 3.74679 52.0168 8.74779C45.6291 13.8445 41.1028 21.3097 41.1007 30.8203L47.1007 30.8217L53.1007 30.823C53.1018 25.5181 55.5016 21.319 59.5012 18.1278C63.6207 14.8408 69.3775 12.7228 75.3656 12.1562C81.3878 11.5864 86.9634 12.6451 90.7938 14.9018C94.3609 17.0034 96.4915 20.1161 96.4904 24.7601L102.49 24.7615ZM47.1007 30.8217H41.1007L41.1007 70.7457H47.1007H53.1007L53.1007 30.8217L47.1007 30.8217ZM148.354 181.966H154.354V163.575H148.354H142.354V181.966H148.354ZM102.189 191.162H108.189V163.575H102.189H96.189V191.162H102.189ZM56.0239 181.966H62.0239L62.0239 163.575H56.0239H50.0239L50.0239 181.966H56.0239Z" fill="black"/>
</svg>
