<svg width="210" height="187" viewBox="0 0 210 187" fill="none" xmlns="http://www.w3.org/2000/svg">
<path d="M47.5789 34.103L47.5789 153.397H5.99998L5.99998 34.103H47.5789Z" fill="white" stroke="black" stroke-width="12" stroke-linecap="round" stroke-linejoin="round"/>
<path d="M47.5789 118.603L120.342 118.603ZM47.5789 83.8088L89.1579 83.8088ZM94.3552 34.1029L47.5789 34.1029V153.397H94.3552C94.3552 153.397 109.947 178.25 135.934 178.25C161.921 178.25 172.316 158.368 172.316 133.515C182.71 133.515 203.5 118.603 203.5 93.75C203.5 68.8971 182.71 53.9853 172.316 53.9853C172.316 34.1029 161.921 9.25 135.934 9.25C109.947 9.25 94.3552 34.1029 94.3552 34.1029Z" fill="white"/>
<path d="M47.5789 118.603L120.342 118.603M47.5789 83.8088L89.1579 83.8088M94.3552 34.1029L47.5789 34.1029V153.397H94.3552C94.3552 153.397 109.947 178.25 135.934 178.25C161.921 178.25 172.316 158.368 172.316 133.515C182.71 133.515 203.5 118.603 203.5 93.75C203.5 68.8971 182.71 53.9853 172.316 53.9853C172.316 34.1029 161.921 9.25 135.934 9.25C109.947 9.25 94.3552 34.1029 94.3552 34.1029Z" stroke="black" stroke-width="12" stroke-linecap="round" stroke-linejoin="round"/>
<path d="M72.166 2.5C73.945 2.50007 75.6511 3.20687 76.9091 4.46484C78.1671 5.72282 78.8739 7.42895 78.874 9.20801V10.2139L79.7451 9.71094C80.5044 9.26837 81.3439 8.97943 82.2148 8.86035C83.0912 8.74058 83.9827 8.79539 84.8378 9.02148C85.6931 9.24761 86.4954 9.64035 87.1982 10.1777C87.9009 10.7151 88.4902 11.3863 88.9326 12.1523C89.3749 12.9185 89.6613 13.7653 89.7753 14.6426C89.8893 15.5198 89.8294 16.411 89.5976 17.2646C89.3658 18.1185 88.9668 18.918 88.4247 19.6172C87.8827 20.3163 87.2074 20.9016 86.4384 21.3389L86.4374 21.3379L85.582 21.833L86.4531 22.3359H86.4521C87.2156 22.7724 87.8858 23.3547 88.4247 24.0498C88.9668 24.749 89.3658 25.5486 89.5976 26.4023C89.8293 27.256 89.8893 28.1472 89.7753 29.0244C89.6613 29.9016 89.3749 30.7475 88.9326 31.5137C88.4902 32.2798 87.9008 32.9509 87.1982 33.4883C86.4954 34.0257 85.6932 34.4194 84.8378 34.6455C83.9827 34.8716 83.0912 34.9264 82.2148 34.8066C81.3383 34.6868 80.4936 34.3946 79.7304 33.9473V33.9463L78.874 33.4521V34.458C78.874 36.2372 78.1672 37.9441 76.9091 39.2021C75.6511 40.46 73.9449 41.1669 72.166 41.167C70.3868 41.167 68.6799 40.4602 67.4218 39.2021C66.1638 37.9441 65.457 36.2371 65.457 34.458V33.4521L64.5995 33.9463L64.6005 33.9473C63.8375 34.3945 62.9935 34.6868 62.1171 34.8066C61.2408 34.9265 60.3492 34.8715 59.4941 34.6455C58.6388 34.4194 57.8365 34.0257 57.1337 33.4883C56.431 32.9509 55.8407 32.2799 55.3984 31.5137C54.9562 30.7476 54.6696 29.9016 54.5556 29.0244C54.4416 28.1472 54.5026 27.256 54.7343 26.4023C54.9661 25.5487 55.3642 24.7489 55.9062 24.0498C56.4448 23.355 57.1148 22.7723 57.8779 22.3359L58.749 21.833L57.8925 21.3379C57.1236 20.9007 56.4482 20.3163 55.9062 19.6172C55.3642 18.918 54.9661 18.1184 54.7343 17.2646C54.5026 16.411 54.4416 15.5198 54.5556 14.6426C54.6696 13.7653 54.956 12.9185 55.3984 12.1523C55.8407 11.3862 56.431 10.7151 57.1337 10.1777C57.8364 9.64046 58.6389 9.24757 59.4941 9.02148C60.3492 8.79545 61.2407 8.74052 62.1171 8.86035C62.9879 8.97942 63.8267 9.2685 64.5859 9.71094L65.457 10.2129V9.20801C65.4571 7.42906 66.164 5.72281 67.4218 4.46484C68.6799 3.20679 70.3868 2.5 72.166 2.5Z" fill="white" stroke="black" stroke-width="5"/>
<path d="M177.166 104.5C178.945 104.5 180.651 105.207 181.909 106.465C183.167 107.723 183.874 109.429 183.874 111.208V112.214L184.745 111.711C185.504 111.268 186.344 110.979 187.215 110.86C188.091 110.741 188.983 110.795 189.838 111.021C190.693 111.248 191.495 111.64 192.198 112.178C192.901 112.715 193.49 113.386 193.933 114.152C194.375 114.919 194.661 115.765 194.775 116.643C194.889 117.52 194.829 118.411 194.598 119.265C194.366 120.118 193.967 120.918 193.425 121.617C192.883 122.316 192.207 122.902 191.438 123.339L191.437 123.338L190.582 123.833L191.453 124.336H191.452C192.216 124.772 192.886 125.355 193.425 126.05C193.967 126.749 194.366 127.549 194.598 128.402C194.829 129.256 194.889 130.147 194.775 131.024C194.661 131.902 194.375 132.748 193.933 133.514C193.49 134.28 192.901 134.951 192.198 135.488C191.495 136.026 190.693 136.419 189.838 136.646C188.983 136.872 188.091 136.926 187.215 136.807C186.338 136.687 185.494 136.395 184.73 135.947V135.946L183.874 135.452V136.458C183.874 138.237 183.167 139.944 181.909 141.202C180.651 142.46 178.945 143.167 177.166 143.167C175.387 143.167 173.68 142.46 172.422 141.202C171.164 139.944 170.457 138.237 170.457 136.458V135.452L169.6 135.946L169.601 135.947C168.837 136.395 167.993 136.687 167.117 136.807C166.241 136.926 165.349 136.872 164.494 136.646C163.639 136.419 162.836 136.026 162.134 135.488C161.431 134.951 160.841 134.28 160.398 133.514C159.956 132.748 159.67 131.902 159.556 131.024C159.442 130.147 159.503 129.256 159.734 128.402C159.966 127.549 160.364 126.749 160.906 126.05C161.445 125.355 162.115 124.772 162.878 124.336L163.749 123.833L162.893 123.338C162.124 122.901 161.448 122.316 160.906 121.617C160.364 120.918 159.966 120.118 159.734 119.265C159.503 118.411 159.442 117.52 159.556 116.643C159.67 115.765 159.956 114.919 160.398 114.152C160.841 113.386 161.431 112.715 162.134 112.178C162.836 111.64 163.639 111.248 164.494 111.021C165.349 110.795 166.241 110.741 167.117 110.86C167.988 110.979 168.827 111.268 169.586 111.711L170.457 112.213V111.208C170.457 109.429 171.164 107.723 172.422 106.465C173.68 105.207 175.387 104.5 177.166 104.5Z" fill="white" stroke="black" stroke-width="5"/>
<path d="M152.166 145.5C153.945 145.5 155.651 146.207 156.909 147.465C158.167 148.723 158.874 150.429 158.874 152.208V153.214L159.745 152.711C160.504 152.268 161.344 151.979 162.215 151.86C163.091 151.741 163.983 151.795 164.838 152.021C165.693 152.248 166.495 152.64 167.198 153.178C167.901 153.715 168.49 154.386 168.933 155.152C169.375 155.919 169.661 156.765 169.775 157.643C169.889 158.52 169.829 159.411 169.598 160.265C169.366 161.118 168.967 161.918 168.425 162.617C167.883 163.316 167.207 163.902 166.438 164.339L166.437 164.338L165.582 164.833L166.453 165.336H166.452C167.216 165.772 167.886 166.355 168.425 167.05C168.967 167.749 169.366 168.549 169.598 169.402C169.829 170.256 169.889 171.147 169.775 172.024C169.661 172.902 169.375 173.748 168.933 174.514C168.49 175.28 167.901 175.951 167.198 176.488C166.495 177.026 165.693 177.419 164.838 177.646C163.983 177.872 163.091 177.926 162.215 177.807C161.338 177.687 160.494 177.395 159.73 176.947V176.946L158.874 176.452V177.458C158.874 179.237 158.167 180.944 156.909 182.202C155.651 183.46 153.945 184.167 152.166 184.167C150.387 184.167 148.68 183.46 147.422 182.202C146.164 180.944 145.457 179.237 145.457 177.458V176.452L144.6 176.946L144.601 176.947C143.837 177.395 142.993 177.687 142.117 177.807C141.241 177.926 140.349 177.872 139.494 177.646C138.639 177.419 137.836 177.026 137.134 176.488C136.431 175.951 135.841 175.28 135.398 174.514C134.956 173.748 134.67 172.902 134.556 172.024C134.442 171.147 134.503 170.256 134.734 169.402C134.966 168.549 135.364 167.749 135.906 167.05C136.445 166.355 137.115 165.772 137.878 165.336L138.749 164.833L137.893 164.338C137.124 163.901 136.448 163.316 135.906 162.617C135.364 161.918 134.966 161.118 134.734 160.265C134.503 159.411 134.442 158.52 134.556 157.643C134.67 156.765 134.956 155.919 135.398 155.152C135.841 154.386 136.431 153.715 137.134 153.178C137.836 152.64 138.639 152.248 139.494 152.021C140.349 151.795 141.241 151.741 142.117 151.86C142.988 151.979 143.827 152.268 144.586 152.711L145.457 153.213V152.208C145.457 150.429 146.164 148.723 147.422 147.465C148.68 146.207 150.387 145.5 152.166 145.5Z" fill="white" stroke="black" stroke-width="5"/>
</svg>
