<svg width="210" height="181" viewBox="0 0 210 181" fill="none" xmlns="http://www.w3.org/2000/svg">
<path d="M47.5789 30.853L47.5789 150.147H5.99998L5.99998 30.853L47.5789 30.853Z" fill="white" stroke="black" stroke-width="12" stroke-linecap="round" stroke-linejoin="round"/>
<path d="M47.5789 115.353L120.342 115.353ZM47.5789 80.5588L89.1579 80.5588ZM94.3552 30.8529L47.5789 30.8529V150.147H94.3552C94.3552 150.147 109.947 175 135.934 175C161.921 175 172.316 155.118 172.316 130.265C182.71 130.265 203.5 115.353 203.5 90.5C203.5 65.6471 182.71 50.7353 172.316 50.7353C172.316 30.8529 161.921 6 135.934 6C109.947 6 94.3552 30.8529 94.3552 30.8529Z" fill="white"/>
<path d="M47.5789 115.353L120.342 115.353M47.5789 80.5588L89.1579 80.5588M94.3552 30.8529L47.5789 30.8529V150.147H94.3552C94.3552 150.147 109.947 175 135.934 175C161.921 175 172.316 155.118 172.316 130.265C182.71 130.265 203.5 115.353 203.5 90.5C203.5 65.6471 182.71 50.7353 172.316 50.7353C172.316 30.8529 161.921 6 135.934 6C109.947 6 94.3552 30.8529 94.3552 30.8529Z" stroke="black" stroke-width="12" stroke-linecap="round" stroke-linejoin="round"/>
</svg>
