<svg width="17" height="17" viewBox="0 0 17 17" fill="none" xmlns="http://www.w3.org/2000/svg">
<mask id="mask0_25_16" style="mask-type:luminance" maskUnits="userSpaceOnUse" x="0" y="0" width="17" height="17">
<path d="M0 0H17V17H0V0Z" fill="white"/>
</mask>
<g mask="url(#mask0_25_16)">
<path d="M13.5044 14.6147C13.4299 14.5417 13.3706 14.4547 13.33 14.3587C13.2894 14.2626 13.2682 14.1595 13.2676 14.0552C13.2671 13.951 13.2873 13.8476 13.3269 13.7512C13.3666 13.6547 13.425 13.5671 13.4987 13.4934C13.5724 13.4197 13.66 13.3613 13.7565 13.3216C13.8529 13.282 13.9563 13.2618 14.0605 13.2623C14.1648 13.2629 14.2679 13.2841 14.364 13.3247C14.46 13.3653 14.547 13.4246 14.62 13.4991C14.7655 13.6475 14.8465 13.8474 14.8454 14.0552C14.8444 14.2631 14.7614 14.4621 14.6144 14.6091C14.4674 14.7561 14.2684 14.8391 14.0605 14.8401C13.8527 14.8412 13.6528 14.7602 13.5044 14.6147ZM8.03248 7.25156C8.03248 7.42806 7.99772 7.60284 7.93017 7.76591C7.86263 7.92898 7.76363 8.07715 7.63882 8.20196C7.51401 8.32676 7.36584 8.42577 7.20277 8.49331C7.0397 8.56086 6.86493 8.59562 6.68842 8.59562C6.51192 8.59562 6.33714 8.56086 6.17407 8.49331C6.011 8.42577 5.86283 8.32676 5.73803 8.20196C5.61322 8.07715 5.51422 7.92898 5.44667 7.76591C5.37913 7.60284 5.34436 7.42806 5.34436 7.25156C5.34436 6.89509 5.48597 6.55322 5.73803 6.30116C5.99009 6.0491 6.33196 5.9075 6.68842 5.9075C7.04489 5.9075 7.38676 6.0491 7.63882 6.30116C7.89088 6.55322 8.03248 6.89509 8.03248 7.25156Z" fill="black"/>
<path d="M12.155 7.37375C12.155 8.64182 11.6512 9.85795 10.7546 10.7546C9.85791 11.6513 8.64178 12.155 7.37372 12.155C6.10565 12.155 4.88952 11.6513 3.99286 10.7546C3.09621 9.85795 2.59247 8.64182 2.59247 7.37375C2.59247 6.10569 3.09621 4.88956 3.99286 3.9929C4.88952 3.09624 6.10565 2.5925 7.37372 2.5925C8.64178 2.5925 9.85791 3.09624 10.7546 3.9929C11.6512 4.88956 12.155 6.10569 12.155 7.37375ZM9.71653 5.93407C9.47747 5.84907 9.26497 5.695 9.09497 5.50906C9.02006 5.42294 8.93834 5.343 8.85059 5.27C8.43625 4.9143 7.92287 4.69408 7.37958 4.63899C6.83629 4.5839 6.28915 4.69659 5.81184 4.96188C5.56747 5.1 5.30184 5.19032 5.02559 5.24344H5.02028C4.73341 5.30188 4.51028 5.54625 4.47309 5.83844C4.46778 5.9075 4.46778 5.97125 4.47841 6.035C4.52091 6.29531 4.53684 6.55563 4.48903 6.81594C4.40882 7.25801 4.44182 7.71319 4.58496 8.13906C4.7281 8.56493 4.97672 8.94764 5.30764 9.25152C5.63857 9.5554 6.04104 9.77057 6.47755 9.87696C6.91405 9.98336 7.37039 9.97752 7.80403 9.86C8.11216 9.775 8.43622 9.75375 8.75497 9.775C8.96216 9.78563 9.16934 9.71657 9.32872 9.55719C9.53591 9.35 9.59966 9.04719 9.50934 8.78688C9.46684 8.65938 9.47747 8.51594 9.53059 8.39375V8.38844C9.58372 8.26625 9.68466 8.17594 9.80153 8.12282C9.98747 8.03782 10.1522 7.89969 10.285 7.71375C10.5612 7.29938 10.5612 6.7575 10.2797 6.36438C10.1309 6.15719 9.93434 6.00844 9.71653 5.93407Z" fill="black"/>
<path d="M7.37375 0C3.30119 0 0 3.30119 0 7.37375C0 11.4463 3.30119 14.7475 7.37375 14.7475C8.47769 14.7475 9.52637 14.5042 10.4683 14.0686L11.8421 15.8658L11.8437 15.8679C12.9009 17.2438 14.9303 17.3905 16.1681 16.1521C17.3942 14.926 17.2571 12.8887 15.8695 11.8357L15.8674 11.8341L14.0718 10.4614C14.5188 9.49354 14.7494 8.43985 14.7475 7.37375C14.7475 3.30119 11.4463 0 7.37375 0ZM10.7599 12.7006C9.74866 13.346 8.57342 13.6876 7.37375 13.685C3.88822 13.685 1.0625 10.8593 1.0625 7.37375C1.0625 3.88822 3.88822 1.0625 7.37375 1.0625C10.8593 1.0625 13.685 3.88822 13.685 7.37375C13.685 8.61687 13.3253 9.77659 12.7048 10.7536L15.2256 12.6809C16.1022 13.345 16.1872 14.6306 15.4169 15.4009C15.2337 15.5843 15.0135 15.7264 14.771 15.8177C14.5284 15.909 14.2692 15.9474 14.0106 15.9303C13.752 15.9132 13.5 15.841 13.2716 15.7185C13.0432 15.5961 12.8436 15.4262 12.6862 15.2203L10.7599 12.7006Z" fill="black"/>
</g>
</svg>
