<svg width="57" height="14" viewBox="0 0 57 14" fill="none" xmlns="http://www.w3.org/2000/svg">
<path d="M21.9375 3V3.5C21.9375 7.13169 24.934 10 28.5 10C32.066 10 35.0625 7.13169 35.0625 3.5V3H36.1875V3.5C36.1875 7.13169 39.1841 10 42.75 10C46.2849 10 49.258 7.18142 49.3096 3.59473C50.0861 3.86225 50.8856 4.21535 51.6289 4.64844C52.5144 5.16437 53.1722 5.70757 53.5762 6.19531C53.9791 6.68183 54 6.94651 54 7V11H3V7C3 6.95121 3.01981 6.68839 3.42578 6.2002C3.83234 5.71135 4.49297 5.16627 5.38184 4.64941C6.12303 4.21845 6.91834 3.86655 7.68945 3.59961C7.74366 7.18399 10.7167 10 14.25 10C17.816 10 20.8125 7.13169 20.8125 3.5V3H21.9375Z" fill="black" stroke="black" stroke-width="6"/>
</svg>
